<svg xmlns="http://www.w3.org/2000/svg" viewBox="0 0 680.0 520.0" width="680.0" height="520.0">
  <!-- Background -->
  <rect width="100%" height="100%" fill="#fbfcfc"/>
  <style>
    .wall { fill: #2c3e50; stroke: #1a252f; stroke-width: 1; }
    .room { fill: #ffffff; stroke: none; }
    .room-covered { fill: #e8f8f5; stroke: none; } /* Soft pastel teal for false ceiling */
    .hallway { fill: #f8f9f9; stroke: none; }
    .hallway-covered { fill: #eaf2f8; stroke: none; } /* Light blue-gray for covered corridor */
    .column { fill: #2c3e50; stroke: #1a252f; stroke-width: 1; }
    .shaft { fill: #eaeded; stroke: #7f8c8d; stroke-dasharray: 2; stroke-width: 1; }
    .door-swing { stroke: #7f8c8d; stroke-width: 0.8; fill: none; stroke-dasharray: 2; }
    .door-leaf { stroke: #2c3e50; stroke-width: 2.5; fill: none; }
    .label { font-family: "Courier New", Courier, monospace; font-size: 13px; font-weight: bold; fill: #2c3e50; text-anchor: middle; }
    .area { font-family: "Courier New", Courier, monospace; font-size: 10px; fill: #7f8c8d; text-anchor: middle; }
    .grid { stroke: #eaeded; stroke-width: 0.5; }
    .scale-bar { stroke: #2c3e50; stroke-width: 3; }
    .shaft-cross { stroke: #7f8c8d; stroke-width: 1; }
    
    /* Ventilation styles */
    .vent-duct { stroke: #3498db; stroke-width: 5; fill: none; stroke-linecap: round; stroke-linejoin: round; stroke-opacity: 0.85; }
    .vent-terminal { fill: #e74c3c; stroke: #ffffff; stroke-width: 2; }
  </style>
  <line x1="40" y1="40" x2="40" y2="480.0" class="grid"/>
  <line x1="80" y1="40" x2="80" y2="480.0" class="grid"/>
  <line x1="120" y1="40" x2="120" y2="480.0" class="grid"/>
  <line x1="160" y1="40" x2="160" y2="480.0" class="grid"/>
  <line x1="200" y1="40" x2="200" y2="480.0" class="grid"/>
  <line x1="240" y1="40" x2="240" y2="480.0" class="grid"/>
  <line x1="280" y1="40" x2="280" y2="480.0" class="grid"/>
  <line x1="320" y1="40" x2="320" y2="480.0" class="grid"/>
  <line x1="360" y1="40" x2="360" y2="480.0" class="grid"/>
  <line x1="400" y1="40" x2="400" y2="480.0" class="grid"/>
  <line x1="440" y1="40" x2="440" y2="480.0" class="grid"/>
  <line x1="480" y1="40" x2="480" y2="480.0" class="grid"/>
  <line x1="520" y1="40" x2="520" y2="480.0" class="grid"/>
  <line x1="560" y1="40" x2="560" y2="480.0" class="grid"/>
  <line x1="600" y1="40" x2="600" y2="480.0" class="grid"/>
  <line x1="640" y1="40" x2="640" y2="480.0" class="grid"/>
  <line x1="40" y1="40" x2="640.0" y2="40" class="grid"/>
  <line x1="40" y1="80" x2="640.0" y2="80" class="grid"/>
  <line x1="40" y1="120" x2="640.0" y2="120" class="grid"/>
  <line x1="40" y1="160" x2="640.0" y2="160" class="grid"/>
  <line x1="40" y1="200" x2="640.0" y2="200" class="grid"/>
  <line x1="40" y1="240" x2="640.0" y2="240" class="grid"/>
  <line x1="40" y1="280" x2="640.0" y2="280" class="grid"/>
  <line x1="40" y1="320" x2="640.0" y2="320" class="grid"/>
  <line x1="40" y1="360" x2="640.0" y2="360" class="grid"/>
  <line x1="40" y1="400" x2="640.0" y2="400" class="grid"/>
  <line x1="40" y1="440" x2="640.0" y2="440" class="grid"/>
  <line x1="40" y1="480" x2="640.0" y2="480" class="grid"/>
  <polygon points="640.0,260.0 640.0,304.0 40.0,304.0 40.0,260.0 640.0,260.0" class="wall"/>
  <polygon points="40.0,40.0 143.65036560028432,40.0 143.65036560028432,260.0 40.0,260.0 40.0,40.0" class="wall"/>
  <polygon points="431.5622879964984,40.0 476.41546184389415,40.0 476.41546184389415,177.4440321984087 640.0,177.4440321984087 640.0,260.0 431.5622879964984,260.0 431.5622879964984,40.0" class="wall"/>
  <polygon points="186.26178149373112,480.0 40.0,480.0 40.0,304.0 186.26178149373112,304.0 186.26178149373112,480.0" class="wall"/>
  <polygon points="143.65036560028432,40.0 277.2294412797931,40.0 277.2294412797931,260.0 143.65036560028432,260.0 143.65036560028432,40.0" class="wall"/>
  <polygon points="378.98967490328585,480.0 186.26178149373112,480.0 186.26178149373112,304.0 378.98967490328585,304.0 378.98967490328585,480.0" class="wall"/>
  <polygon points="277.2294412797931,40.0 431.5622879964984,40.0 431.5622879964984,260.0 277.2294412797931,260.0 277.2294412797931,40.0" class="wall"/>
  <polygon points="640.0,480.0 378.98967490328585,480.0 378.98967490328585,304.0 640.0,304.0 640.0,480.0" class="wall"/>
  <polygon points="46.0,280.0 54.0,280.0 54.58810284197736,279.97110836003316 55.17054193209677,279.8847116824194 55.74170806352677,279.7416420143932 56.296100594190534,279.54327719506773 56.82838042095599,279.29152758609007 57.33342139811761,278.9888176738152 57.80635970498187,278.63806272017644 58.242640687119284,278.24264068711926 58.63806272017642,277.80635970498184 58.98881767381527,277.3334213981176 59.291527586090126,276.82838042095597 59.543277195067716,276.29610059419053 59.74164201439325,275.74170806352674 59.88471168241938,275.17054193209674 59.971108360033185,274.5881028419774 60.0,274.0 60.0,266.0 123.65036560028432,266.0 123.65036560028432,274.0 123.67925724025113,274.5881028419774 123.76565391786494,275.17054193209674 123.90872358589107,275.74170806352674 124.10708840521662,276.29610059419053 124.35883801419419,276.82838042095597 124.66154792646904,277.3334213981176 125.0123028801079,277.80635970498184 125.40772491316504,278.24264068711926 125.84400589530246,278.63806272017644 126.31694420216672,278.9888176738152 126.82198517932834,279.29152758609007 127.35426500609378,279.54327719506773 127.90865753675754,279.7416420143932 128.47982366818755,279.8847116824194 129.06226275830696,279.97110836003316 129.65036560028432,280.0 157.65036560028432,280.0 158.2384684422617,279.97110836003316 158.8209075323811,279.8847116824194 159.39207366381112,279.7416420143932 159.94646619447485,279.54327719506773 160.4787460212403,279.29152758609007 160.98378699840197,278.9888176738152 161.4567253052662,278.63806272017644 161.8930062874036,278.24264068711926 162.28842832046075,277.80635970498184 162.6391832740996,277.3334213981176 162.94189318637447,276.82838042095597 163.19364279535205,276.29610059419053 163.3920076146776,275.74170806352674 163.5350772827037,275.17054193209674 163.62147396031753,274.5881028419774 163.65036560028432,274.0 163.65036560028432,266.0 634.0,266.0 634.0,298.0 46.0,298.0 46.0,280.0" class="hallway-covered"/>
  <text x="348.90156310089134" y="277.3719459179038" class="label">Hallway</text>
  <text x="348.90156310089134" y="292.3719459179038" class="area">16.5 m²</text>
  <text x="348.90156310089134" y="304.3719459179038" font-family="monospace" font-size="8" fill="#16a085" text-anchor="middle">[FALSE CEILING]</text>
  <polygon points="129.65036560028432,240.0 129.06226275830696,240.02889163996684 128.47982366818755,240.11528831758062 127.90865753675754,240.25835798560678 127.35426500609378,240.45672280493227 126.82198517932834,240.7084724139099 126.31694420216672,241.01118232618475 125.84400589530246,241.3619372798236 125.40772491316504,241.75735931288074 125.0123028801079,242.19364029501816 124.66154792646904,242.6665786018824 124.35883801419419,243.17161957904403 124.10708840521662,243.70389940580947 123.90872358589107,244.25829193647326 123.76565391786494,244.82945806790323 123.67925724025113,245.41189715802264 123.65036560028432,246.0 123.65036560028432,254.0 60.0,254.0 60.0,246.0 59.971108360033185,245.41189715802264 59.88471168241938,244.82945806790326 59.74164201439325,244.25829193647326 59.543277195067716,243.70389940580947 59.291527586090126,243.17161957904403 58.98881767381527,242.6665786018824 58.63806272017642,242.19364029501816 58.242640687119284,241.75735931288074 57.80635970498187,241.3619372798236 57.33342139811761,241.01118232618475 56.82838042095599,240.7084724139099 56.296100594190534,240.45672280493227 55.74170806352677,240.25835798560678 55.17054193209677,240.11528831758062 54.58810284197736,240.02889163996684 54.0,240.0 46.0,240.0 46.0,46.000000000000014 123.65036560028432,46.000000000000014 123.65036560028432,53.999999999999986 123.67925724025113,54.58810284197732 123.76565391786494,55.17054193209674 123.90872358589107,55.74170806352676 124.10708840521662,56.296100594190506 124.35883801419419,56.828380420955966 124.66154792646904,57.33342139811761 125.0123028801079,57.80635970498189 125.40772491316504,58.24264068711926 125.84400589530246,58.63806272017641 126.31694420216672,58.98881767381525 126.82198517932834,59.29152758609014 127.35426500609378,59.543277195067716 127.90865753675754,59.74164201439322 128.47982366818755,59.884711682419365 129.06226275830696,59.971108360033156 129.65036560028432,60.0 137.65036560028432,60.0 137.65036560028432,240.0 129.65036560028432,240.0" class="room-covered"/>
  <text x="91.42774885616032" y="144.01061907951132" class="label">Toilet</text>
  <text x="91.42774885616032" y="159.01061907951132" class="area">14.3 m²</text>
  <text x="91.42774885616032" y="171.01061907951132" font-family="monospace" font-size="8" fill="#16a085" text-anchor="middle">[FALSE CEILING]</text>
  <polygon points="634.0,183.4440321984087 634.0,254.0 437.5622879964984,254.0 437.5622879964984,46.000000000000014 470.4154618438941,46.000000000000014 470.4154618438941,177.4440321984087 470.44435348386094,178.03213504038607 470.53075016147477,178.61457413050547 470.67381982950087,179.18574026193545 470.8721846488264,179.74013279259924 471.12393425780397,180.27241261936467 471.4266441700789,180.7774535965263 471.7773991237177,181.25039190339055 472.17282115677483,181.68667288552797 472.60910213891225,182.0820949185851 473.0820404457765,182.43284987222395 473.5870814229381,182.7355597844988 474.1193612497036,182.98730939347644 474.67375378036735,183.18567421280193 475.24491991179735,183.32874388082809 475.82735900191676,183.41514055844186 476.41546184389415,183.4440321984087 634.0,183.4440321984087" class="room-covered"/>
  <text x="515.6633003041056" y="188.1608296967803" class="label">Washroom</text>
  <text x="515.6633003041056" y="203.1608296967803" class="area">14.6 m²</text>
  <text x="515.6633003041056" y="215.1608296967803" font-family="monospace" font-size="8" fill="#16a085" text-anchor="middle">[FALSE CEILING]</text>
  <polygon points="180.26178149373112,310.0 180.26178149373112,474.0 46.0,474.0 46.0,310.0 180.26178149373112,310.0" class="room-covered"/>
  <text x="113.13089074686556" y="387.0" class="label">Bathroom</text>
  <text x="113.13089074686556" y="402.0" class="area">16.1 m²</text>
  <text x="113.13089074686556" y="414.0" font-family="monospace" font-size="8" fill="#16a085" text-anchor="middle">[FALSE CEILING]</text>
  <polygon points="163.65036560028432,254.0 163.65036560028432,246.0 163.62147396031753,245.41189715802264 163.5350772827037,244.82945806790326 163.3920076146776,244.25829193647326 163.19364279535205,243.70389940580947 162.94189318637447,243.17161957904403 162.6391832740996,242.6665786018824 162.28842832046075,242.19364029501816 161.8930062874036,241.75735931288074 161.4567253052662,241.3619372798236 160.98378699840197,241.01118232618475 160.4787460212403,240.7084724139099 159.94646619447485,240.45672280493227 159.39207366381112,240.25835798560678 158.8209075323811,240.11528831758062 158.2384684422617,240.02889163996684 157.65036560028432,240.0 149.65036560028432,240.0 149.65036560028432,60.0 157.65036560028432,60.0 158.2384684422617,59.971108360033156 158.8209075323811,59.884711682419365 159.39207366381112,59.74164201439322 159.94646619447485,59.543277195067716 160.4787460212403,59.29152758609014 160.98378699840197,58.98881767381525 161.4567253052662,58.63806272017641 161.8930062874036,58.24264068711926 162.28842832046075,57.80635970498189 162.6391832740996,57.33342139811761 162.94189318637447,56.828380420955966 163.19364279535205,56.296100594190506 163.3920076146776,55.74170806352676 163.5350772827037,55.17054193209674 163.62147396031753,54.58810284197732 163.65036560028432,53.999999999999986 163.65036560028432,46.000000000000014 271.2294412797931,46.000000000000014 271.2294412797931,254.0 163.65036560028432,254.0" class="room-covered"/>
  <text x="211.25627274372937" y="145.0" class="label">Kitchen</text>
  <text x="211.25627274372937" y="160.0" class="area">18.4 m²</text>
  <text x="211.25627274372937" y="172.0" font-family="monospace" font-size="8" fill="#16a085" text-anchor="middle">[FALSE CEILING]</text>
  <polygon points="372.98967490328585,310.0 372.98967490328585,474.0 192.2617814937311,474.0 192.2617814937311,310.0 372.98967490328585,310.0" class="room-covered"/>
  <text x="282.62572819850845" y="387.0" class="label">Bedroom 1</text>
  <text x="282.62572819850845" y="402.0" class="area">21.2 m²</text>
  <text x="282.62572819850845" y="414.0" font-family="monospace" font-size="8" fill="#16a085" text-anchor="middle">[FALSE CEILING]</text>
  <polygon points="283.22944127979315,254.0 283.22944127979315,46.000000000000014 425.56228799649836,46.000000000000014 425.56228799649836,254.0 283.22944127979315,254.0" class="room"/>
  <text x="354.3958646381457" y="145.0" class="label">Master Bedroom</text>
  <text x="354.3958646381457" y="160.0" class="area">21.2 m²</text>
  <polygon points="634.0,310.0 634.0,474.0 384.9896749032859,474.0 384.9896749032859,310.0 634.0,310.0" class="room"/>
  <text x="509.4948374516429" y="387.0" class="label">Living Room</text>
  <text x="509.4948374516429" y="402.0" class="area">28.7 m²</text>
  <!-- Door Opening -->
  <line x1="74.82518280014216" y1="260.0" x2="108.82518280014216" y2="260.0" stroke="#ffffff" stroke-width="4"/>
  <line x1="74.82518280014216" y1="260.0" x2="74.82518280014216" y2="294.0" class="door-leaf"/>
  <path d="M 74.82518280014216 294.0 A 34.0 34.0 0 0 0 108.82518280014216 260.0" class="door-swing"/>
  <!-- Door Opening -->
  <line x1="518.7811439982491" y1="260.0" x2="552.7811439982493" y2="260.0" stroke="#ffffff" stroke-width="4"/>
  <line x1="518.7811439982491" y1="260.0" x2="518.7811439982491" y2="294.0" class="door-leaf"/>
  <path d="M 518.7811439982491 294.0 A 34.0 34.0 0 0 0 552.7811439982493 260.0" class="door-swing"/>
  <!-- Door Opening -->
  <line x1="130.13089074686553" y1="304.0" x2="96.13089074686556" y2="304.0" stroke="#ffffff" stroke-width="4"/>
  <line x1="130.13089074686553" y1="304.0" x2="130.13089074686553" y2="270.0" class="door-leaf"/>
  <path d="M 130.13089074686553 270.0 A 34.0 34.0 0 0 0 96.13089074686556 304.0" class="door-swing"/>
  <!-- Door Opening -->
  <line x1="193.43990344003873" y1="260.0" x2="227.43990344003873" y2="260.0" stroke="#ffffff" stroke-width="4"/>
  <line x1="193.43990344003873" y1="260.0" x2="193.43990344003873" y2="294.0" class="door-leaf"/>
  <path d="M 193.43990344003873 294.0 A 34.0 34.0 0 0 0 227.43990344003873 260.0" class="door-swing"/>
  <!-- Door Opening -->
  <line x1="299.62572819850845" y1="304.0" x2="265.6257281985085" y2="304.0" stroke="#ffffff" stroke-width="4"/>
  <line x1="299.62572819850845" y1="304.0" x2="299.62572819850845" y2="270.0" class="door-leaf"/>
  <path d="M 299.62572819850845 270.0 A 34.0 34.0 0 0 0 265.6257281985085 304.0" class="door-swing"/>
  <!-- Door Opening -->
  <line x1="337.3958646381458" y1="260.0" x2="371.3958646381457" y2="260.0" stroke="#ffffff" stroke-width="4"/>
  <line x1="337.3958646381458" y1="260.0" x2="337.3958646381458" y2="294.0" class="door-leaf"/>
  <path d="M 337.3958646381458 294.0 A 34.0 34.0 0 0 0 371.3958646381457 260.0" class="door-swing"/>
  <!-- Door Opening -->
  <line x1="526.494837451643" y1="304.0" x2="492.4948374516429" y2="304.0" stroke="#ffffff" stroke-width="4"/>
  <line x1="526.494837451643" y1="304.0" x2="526.494837451643" y2="270.0" class="door-leaf"/>
  <path d="M 526.494837451643 270.0 A 34.0 34.0 0 0 0 492.4948374516429 304.0" class="door-swing"/>
  <!-- Door Opening -->
  <line x1="186.26178149373112" y1="375.0" x2="186.26178149373112" y2="409.0" stroke="#ffffff" stroke-width="4"/>
  <line x1="186.26178149373112" y1="375.0" x2="220.2617814937311" y2="375.0" class="door-leaf"/>
  <path d="M 220.2617814937311 375.0 A 34.0 34.0 0 0 1 186.26178149373112 409.0" class="door-swing"/>
  <!-- Door Opening -->
  <line x1="378.98967490328585" y1="375.0" x2="378.98967490328585" y2="409.0" stroke="#ffffff" stroke-width="4"/>
  <line x1="378.98967490328585" y1="375.0" x2="412.98967490328585" y2="375.0" class="door-leaf"/>
  <path d="M 412.98967490328585 375.0 A 34.0 34.0 0 0 1 378.98967490328585 409.0" class="door-swing"/>
  <rect x="26.0" y="246.0" width="28.0" height="27.99999999999997" class="shaft"/>
  <line x1="26.0" y1="246.0" x2="54.0" y2="274.0" class="shaft-cross"/>
  <line x1="54.0" y1="246.0" x2="26.0" y2="274.0" class="shaft-cross"/>
  <text x="40.0" y="263.0" font-family="monospace" font-size="8" fill="#7f8c8d" text-anchor="middle">MEP</text>
  <rect x="129.65036560028432" y="246.0" width="28.000000000000007" height="27.99999999999997" class="shaft"/>
  <line x1="129.65036560028432" y1="246.0" x2="157.65036560028432" y2="274.0" class="shaft-cross"/>
  <line x1="157.65036560028432" y1="246.0" x2="129.65036560028432" y2="274.0" class="shaft-cross"/>
  <text x="143.65036560028432" y="263.0" font-family="monospace" font-size="8" fill="#7f8c8d" text-anchor="middle">MEP</text>
  <rect x="129.65036560028432" y="26.000000000000014" width="28.000000000000007" height="27.99999999999997" class="shaft"/>
  <line x1="129.65036560028432" y1="26.000000000000014" x2="157.65036560028432" y2="53.999999999999986" class="shaft-cross"/>
  <line x1="157.65036560028432" y1="26.000000000000014" x2="129.65036560028432" y2="53.999999999999986" class="shaft-cross"/>
  <text x="143.65036560028432" y="43.0" font-family="monospace" font-size="8" fill="#7f8c8d" text-anchor="middle">MEP</text>
  <rect x="33.0" y="473.0" width="14.0" height="14.0" class="column"/>
  <rect x="33.0" y="313.0" width="14.0" height="13.999999999999986" class="column"/>
  <rect x="33.0" y="152.99999999999997" width="14.0" height="14.000000000000021" class="column"/>
  <rect x="33.0" y="32.99999999999997" width="14.0" height="14.000000000000057" class="column"/>
  <rect x="193.0" y="473.0" width="13.999999999999986" height="14.0" class="column"/>
  <rect x="193.0" y="32.99999999999997" width="13.999999999999986" height="14.000000000000057" class="column"/>
  <rect x="353.0" y="473.0" width="14.000000000000021" height="14.0" class="column"/>
  <rect x="353.0" y="32.99999999999997" width="14.000000000000021" height="14.000000000000057" class="column"/>
  <rect x="513.0" y="473.0" width="14.000000000000057" height="14.0" class="column"/>
  <rect x="633.0" y="473.0" width="14.000000000000057" height="14.0" class="column"/>
  <rect x="633.0" y="313.0" width="14.000000000000057" height="13.999999999999986" class="column"/>
  <!-- Ventilation Duct Layout -->
  <line x1="91.82518280014217" y1="150.0" x2="210.43990344003873" y2="150.0" class="vent_duct" stroke="#3498db" stroke-width="5" fill="none" stroke-linecap="round" stroke-linejoin="round" stroke-opacity="0.85"/>
  <line x1="210.43990344003873" y1="260.0" x2="514.207440593823" y2="260.0" class="vent_duct" stroke="#3498db" stroke-width="5" fill="none" stroke-linecap="round" stroke-linejoin="round" stroke-opacity="0.85"/>
  <line x1="514.20744" y1="260.0" x2="514.20744" y2="189.70818140264797" class="vent_duct" stroke="#3498db" stroke-width="5" fill="none" stroke-linecap="round" stroke-linejoin="round" stroke-opacity="0.85"/>
  <line x1="210.43990399999998" y1="260.0" x2="210.43990399999998" y2="150.0" class="vent_duct" stroke="#3498db" stroke-width="5" fill="none" stroke-linecap="round" stroke-linejoin="round" stroke-opacity="0.85"/>
  <line x1="113.130892" y1="392.0" x2="113.130892" y2="150.0" class="vent_duct" stroke="#3498db" stroke-width="5" fill="none" stroke-linecap="round" stroke-linejoin="round" stroke-opacity="0.85"/>
  <!-- Wet Room Terminals -->
  <circle cx="91.82518280014217" cy="150.0" r="6" class="vent-terminal"/>
  <circle cx="514.207440593823" cy="189.70818140264797" r="6" class="vent-terminal"/>
  <circle cx="113.13089074686556" cy="392.0" r="6" class="vent-terminal"/>
  <circle cx="210.43990344003873" cy="150.0" r="6" class="vent-terminal"/>
  <line x1="40" y1="480.0" x2="240" y2="480.0" class="scale-bar"/>
  <text x="140.0" y="470.0" font-family="monospace" font-size="12" fill="#2c3e50" text-anchor="middle">5 Meters</text>
</svg>