<svg xmlns="http://www.w3.org/2000/svg" viewBox="0 0 680.0 520.0" width="680.0" height="520.0">
  <!-- Background -->
  <rect width="100%" height="100%" fill="#fbfcfc"/>
  <style>
    .wall { fill: #2c3e50; stroke: #1a252f; stroke-width: 1; }
    .room { fill: #ffffff; stroke: none; }
    .room-covered { fill: #e8f8f5; stroke: none; }
    .hallway { fill: #f8f9f9; stroke: none; }
    .hallway-covered { fill: #eaf2f8; stroke: none; }
    .column { fill: #2c3e50; stroke: #1a252f; stroke-width: 1; }
    .shaft { fill: #eaeded; stroke: #7f8c8d; stroke-dasharray: 2; stroke-width: 1; }
    .door-swing { stroke: #7f8c8d; stroke-width: 0.8; fill: none; stroke-dasharray: 2; }
    .door-leaf { stroke: #2c3e50; stroke-width: 2.5; fill: none; }
    .label { font-family: "Courier New", Courier, monospace; font-size: 13px; font-weight: bold; fill: #2c3e50; text-anchor: middle; }
    .area { font-family: "Courier New", Courier, monospace; font-size: 10px; fill: #7f8c8d; text-anchor: middle; }
    .grid { stroke: #eaeded; stroke-width: 0.5; }
    .scale-bar { stroke: #2c3e50; stroke-width: 3; }
    .shaft-cross { stroke: #7f8c8d; stroke-width: 1; }
    .vent-duct { stroke: #3498db; stroke-width: 5; fill: none; stroke-linecap: round; stroke-linejoin: round; stroke-opacity: 0.85; }
    .vent-terminal { fill: #e74c3c; stroke: #ffffff; stroke-width: 2; }
  </style>
  <line x1="40" y1="40" x2="40" y2="480.0" class="grid"/>
  <line x1="80" y1="40" x2="80" y2="480.0" class="grid"/>
  <line x1="120" y1="40" x2="120" y2="480.0" class="grid"/>
  <line x1="160" y1="40" x2="160" y2="480.0" class="grid"/>
  <line x1="200" y1="40" x2="200" y2="480.0" class="grid"/>
  <line x1="240" y1="40" x2="240" y2="480.0" class="grid"/>
  <line x1="280" y1="40" x2="280" y2="480.0" class="grid"/>
  <line x1="320" y1="40" x2="320" y2="480.0" class="grid"/>
  <line x1="360" y1="40" x2="360" y2="480.0" class="grid"/>
  <line x1="400" y1="40" x2="400" y2="480.0" class="grid"/>
  <line x1="440" y1="40" x2="440" y2="480.0" class="grid"/>
  <line x1="480" y1="40" x2="480" y2="480.0" class="grid"/>
  <line x1="520" y1="40" x2="520" y2="480.0" class="grid"/>
  <line x1="560" y1="40" x2="560" y2="480.0" class="grid"/>
  <line x1="600" y1="40" x2="600" y2="480.0" class="grid"/>
  <line x1="640" y1="40" x2="640" y2="480.0" class="grid"/>
  <line x1="40" y1="40" x2="640.0" y2="40" class="grid"/>
  <line x1="40" y1="80" x2="640.0" y2="80" class="grid"/>
  <line x1="40" y1="120" x2="640.0" y2="120" class="grid"/>
  <line x1="40" y1="160" x2="640.0" y2="160" class="grid"/>
  <line x1="40" y1="200" x2="640.0" y2="200" class="grid"/>
  <line x1="40" y1="240" x2="640.0" y2="240" class="grid"/>
  <line x1="40" y1="280" x2="640.0" y2="280" class="grid"/>
  <line x1="40" y1="320" x2="640.0" y2="320" class="grid"/>
  <line x1="40" y1="360" x2="640.0" y2="360" class="grid"/>
  <line x1="40" y1="400" x2="640.0" y2="400" class="grid"/>
  <line x1="40" y1="440" x2="640.0" y2="440" class="grid"/>
  <line x1="40" y1="480" x2="640.0" y2="480" class="grid"/>
  <polygon points="640.0,260.0 640.0,304.0 40.0,304.0 40.0,260.0 640.0,260.0" class="wall"/>
  <polygon points="537.8,40.0 640.0,40.0 640.0,260.0 537.8,260.0 537.8,40.0" class="wall"/>
  <polygon points="204.56,480.0 40.0,480.0 40.0,304.0 204.56,304.0 204.56,480.0" class="wall"/>
  <polygon points="404.84000000000003,40.0 537.8,40.0 537.8,260.0 404.84000000000003,260.0 404.84000000000003,40.0" class="wall"/>
  <polygon points="40.0,40.0 179.84,40.0 179.84,260.0 40.0,260.0 40.0,40.0" class="wall"/>
  <polygon points="640.0,480.0 452.08,480.0 452.08,304.0 640.0,304.0 640.0,480.0" class="wall"/>
  <polygon points="452.08,480.0 204.56,480.0 204.56,304.0 452.08,304.0 452.08,480.0" class="wall"/>
  <polygon points="179.84,40.0 404.84000000000003,40.0 404.84000000000003,260.0 179.84,260.0 179.84,40.0" class="wall"/>
  <polygon points="46.0,266.0 517.8,266.0 517.8,274.0 517.8288916399669,274.5881028419774 517.9152883175807,275.17054193209674 518.0583579856068,275.7417080635268 518.2567228049322,276.29610059419053 518.5084724139099,276.82838042095597 518.8111823261847,277.3334213981176 519.1619372798236,277.8063597049819 519.5573593128807,278.24264068711926 519.9936402950182,278.63806272017644 520.4665786018824,278.9888176738153 520.971619579044,279.2915275860901 521.5038994058095,279.54327719506773 522.0582919364733,279.7416420143933 522.6294580679032,279.8847116824194 523.2118971580226,279.9711083600332 523.8,280.0 551.8,280.0 552.3881028419773,279.9711083600332 552.9705419320967,279.8847116824194 553.5417080635268,279.7416420143933 554.0961005941906,279.54327719506773 554.6283804209561,279.2915275860901 555.1334213981177,278.9888176738153 555.6063597049819,278.63806272017644 556.0426406871193,278.24264068711926 556.4380627201764,277.8063597049819 556.7888176738153,277.3334213981176 557.0915275860901,276.82838042095597 557.3432771950677,276.29610059419053 557.5416420143932,275.7417080635268 557.6847116824193,275.17054193209674 557.7711083600332,274.5881028419774 557.8,274.0 557.8,266.0 620.0,266.0 620.0,274.0 620.0288916399668,274.5881028419774 620.1152883175806,275.17054193209674 620.2583579856068,275.7417080635268 620.4567228049323,276.29610059419053 620.7084724139098,276.82838042095597 621.0111823261848,277.3334213981176 621.3619372798236,277.8063597049819 621.7573593128807,278.24264068711926 622.1936402950181,278.63806272017644 622.6665786018823,278.9888176738153 623.171619579044,279.2915275860901 623.7038994058095,279.54327719506773 624.2582919364733,279.7416420143933 624.8294580679033,279.8847116824194 625.4118971580226,279.9711083600332 626.0,280.0 634.0,280.0 634.0,298.0 46.0,298.0 46.0,266.0" class="hallway-covered"/>
  <text x="331.0547688521514" y="277.3719459179038" class="label">Hallway</text>
  <text x="331.0547688521514" y="292.3719459179038" class="area">16.5 m²</text>
  <text x="331.0547688521514" y="304.3719459179038" font-family="monospace" font-size="8" fill="#16a085" text-anchor="middle">[FALSE CEILING]</text>
  <polygon points="626.0,240.0 625.4118971580226,240.02889163996682 624.8294580679033,240.11528831758062 624.2582919364733,240.25835798560675 623.7038994058095,240.45672280493227 623.171619579044,240.70847241390987 622.6665786018823,241.01118232618472 622.1936402950181,241.3619372798236 621.7573593128807,241.75735931288074 621.3619372798236,242.1936402950181 621.0111823261848,242.6665786018824 620.7084724139098,243.17161957904403 620.4567228049323,243.70389940580947 620.2583579856068,244.2582919364732 620.1152883175806,244.82945806790323 620.0288916399668,245.4118971580226 620.0,246.0 620.0,254.0 557.8,254.0 557.8,246.0 557.7711083600332,245.4118971580226 557.6847116824193,244.82945806790323 557.5416420143932,244.2582919364732 557.3432771950677,243.70389940580947 557.0915275860901,243.17161957904403 556.7888176738153,242.6665786018824 556.4380627201764,242.1936402950181 556.0426406871193,241.75735931288074 555.6063597049819,241.3619372798236 555.1334213981177,241.01118232618472 554.6283804209561,240.70847241390987 554.0961005941906,240.45672280493227 553.5417080635268,240.25835798560675 552.9705419320967,240.11528831758062 552.3881028419773,240.02889163996682 551.8,240.0 543.8,240.0 543.8,60.0 551.8,60.0 552.3881028419773,59.97110836003318 552.9705419320967,59.884711682419365 553.5417080635268,59.74164201439322 554.0961005941906,59.543277195067716 554.6283804209561,59.29152758609016 555.1334213981177,58.988817673815284 555.6063597049819,58.638062720176386 556.0426406871193,58.24264068711928 556.4380627201764,57.80635970498188 556.7888176738153,57.33342139811764 557.0915275860901,56.82838042095602 557.3432771950677,56.296100594190506 557.5416420143932,55.74170806352675 557.6847116824193,55.17054193209675 557.7711083600332,54.58810284197738 557.8,54.0 557.8,46.0 634.0,46.0 634.0,240.0 626.0,240.0" class="room-covered"/>
  <text x="589.296521476758" y="143.9942167084157" class="label">Toilet</text>
  <text x="589.296521476758" y="158.9942167084157" class="area">14.1 m²</text>
  <text x="589.296521476758" y="170.9942167084157" font-family="monospace" font-size="8" fill="#16a085" text-anchor="middle">[FALSE CEILING]</text>
  <polygon points="198.56,310.0 198.56,474.0 46.0,474.0 46.0,310.0 198.56,310.0" class="room-covered"/>
  <text x="122.28" y="387.0" class="label">Washroom</text>
  <text x="122.28" y="402.0" class="area">18.1 m²</text>
  <text x="122.28" y="414.0" font-family="monospace" font-size="8" fill="#16a085" text-anchor="middle">[FALSE CEILING]</text>
  <polygon points="523.8,240.0 523.2118971580226,240.02889163996682 522.6294580679032,240.11528831758062 522.0582919364733,240.25835798560675 521.5038994058095,240.45672280493227 520.971619579044,240.70847241390987 520.4665786018824,241.01118232618472 519.9936402950182,241.3619372798236 519.5573593128807,241.75735931288074 519.1619372798236,242.1936402950181 518.8111823261847,242.6665786018824 518.5084724139099,243.17161957904403 518.2567228049322,243.70389940580947 518.0583579856068,244.2582919364732 517.9152883175807,244.82945806790323 517.8288916399669,245.4118971580226 517.8,246.0 517.8,254.0 410.84000000000003,254.0 410.84000000000003,46.0 517.8,46.0 517.8,54.0 517.8288916399669,54.58810284197738 517.9152883175807,55.17054193209675 518.0583579856068,55.74170806352675 518.2567228049322,56.29610059419058 518.5084724139099,56.82838042095602 518.8111823261847,57.33342139811764 519.1619372798236,57.80635970498188 519.5573593128807,58.24264068711928 519.9936402950182,58.63806272017646 520.4665786018824,58.988817673815284 520.971619579044,59.29152758609016 521.5038994058095,59.543277195067716 522.0582919364733,59.74164201439322 522.6294580679032,59.884711682419365 523.2118971580226,59.97110836003318 523.8,60.0 531.8,60.0 531.8,240.0 523.8,240.0" class="room-covered"/>
  <text x="470.50409092401196" y="145.0" class="label">Bathroom</text>
  <text x="470.50409092401196" y="160.0" class="area">18.3 m²</text>
  <text x="470.50409092401196" y="172.0" font-family="monospace" font-size="8" fill="#16a085" text-anchor="middle">[FALSE CEILING]</text>
  <polygon points="46.0,254.0 46.0,46.0 173.84,46.0 173.84,254.0 46.0,254.0" class="room-covered"/>
  <text x="109.92" y="145.0" class="label">Kitchen</text>
  <text x="109.92" y="160.0" class="area">19.2 m²</text>
  <text x="109.92" y="172.0" font-family="monospace" font-size="8" fill="#16a085" text-anchor="middle">[FALSE CEILING]</text>
  <polygon points="634.0,310.0 634.0,474.0 458.08,474.0 458.08,310.0 634.0,310.0" class="room-covered"/>
  <text x="546.04" y="387.0" class="label">Bedroom 1</text>
  <text x="546.04" y="402.0" class="area">20.7 m²</text>
  <text x="546.04" y="414.0" font-family="monospace" font-size="8" fill="#16a085" text-anchor="middle">[FALSE CEILING]</text>
  <polygon points="446.08,310.0 446.08,474.0 210.56,474.0 210.56,310.0 446.08,310.0" class="room"/>
  <text x="328.32" y="387.0" class="label">Master Bedroom</text>
  <text x="328.32" y="402.0" class="area">27.2 m²</text>
  <polygon points="185.84,254.0 185.84,46.0 398.84000000000003,46.0 398.84000000000003,254.0 185.84,254.0" class="room"/>
  <text x="292.34000000000003" y="145.0" class="label">Living Room</text>
  <text x="292.34000000000003" y="160.0" class="area">30.9 m²</text>
  <!-- Door Opening -->
  <line x1="571.88" y1="260.0" x2="605.88" y2="260.0" stroke="#ffffff" stroke-width="4"/>
  <line x1="571.88" y1="260.0" x2="571.88" y2="294.0" class="door-leaf"/>
  <path d="M 571.88 294.0 A 34.0 34.0 0 0 0 605.88 260.0" class="door-swing"/>
  <!-- Door Opening -->
  <line x1="139.28" y1="304.0" x2="105.28" y2="304.0" stroke="#ffffff" stroke-width="4"/>
  <line x1="139.28" y1="304.0" x2="139.28" y2="270.0" class="door-leaf"/>
  <path d="M 139.28 270.0 A 34.0 34.0 0 0 0 105.28 304.0" class="door-swing"/>
  <!-- Door Opening -->
  <line x1="454.32000000000005" y1="260.0" x2="488.32" y2="260.0" stroke="#ffffff" stroke-width="4"/>
  <line x1="454.32000000000005" y1="260.0" x2="454.32000000000005" y2="294.0" class="door-leaf"/>
  <path d="M 454.32000000000005 294.0 A 34.0 34.0 0 0 0 488.32 260.0" class="door-swing"/>
  <!-- Door Opening -->
  <line x1="92.92" y1="260.0" x2="126.92" y2="260.0" stroke="#ffffff" stroke-width="4"/>
  <line x1="92.92" y1="260.0" x2="92.92" y2="294.0" class="door-leaf"/>
  <path d="M 92.92 294.0 A 34.0 34.0 0 0 0 126.92 260.0" class="door-swing"/>
  <!-- Door Opening -->
  <line x1="563.04" y1="304.0" x2="529.04" y2="304.0" stroke="#ffffff" stroke-width="4"/>
  <line x1="563.04" y1="304.0" x2="563.04" y2="270.0" class="door-leaf"/>
  <path d="M 563.04 270.0 A 34.0 34.0 0 0 0 529.04 304.0" class="door-swing"/>
  <!-- Door Opening -->
  <line x1="345.32" y1="304.0" x2="311.32" y2="304.0" stroke="#ffffff" stroke-width="4"/>
  <line x1="345.32" y1="304.0" x2="345.32" y2="270.0" class="door-leaf"/>
  <path d="M 345.32 270.0 A 34.0 34.0 0 0 0 311.32 304.0" class="door-swing"/>
  <!-- Door Opening -->
  <line x1="275.36" y1="260.0" x2="309.36" y2="260.0" stroke="#ffffff" stroke-width="4"/>
  <line x1="275.36" y1="260.0" x2="275.36" y2="294.0" class="door-leaf"/>
  <path d="M 275.36 294.0 A 34.0 34.0 0 0 0 309.36 260.0" class="door-swing"/>
  <!-- Door Opening -->
  <line x1="179.84" y1="133.0" x2="179.84" y2="167.0" stroke="#ffffff" stroke-width="4"/>
  <line x1="179.84" y1="133.0" x2="213.84" y2="133.0" class="door-leaf"/>
  <path d="M 213.84 133.0 A 34.0 34.0 0 0 1 179.84 167.0" class="door-swing"/>
  <rect x="523.8" y="246.0" width="28.0" height="28.0" class="shaft"/>
  <line x1="523.8" y1="246.0" x2="551.8" y2="274.0" class="shaft-cross"/>
  <line x1="551.8" y1="246.0" x2="523.8" y2="274.0" class="shaft-cross"/>
  <text x="537.8" y="263.0" font-family="monospace" font-size="8" fill="#7f8c8d" text-anchor="middle">MEP</text>
  <rect x="626.0" y="246.0" width="28.0" height="28.0" class="shaft"/>
  <line x1="626.0" y1="246.0" x2="654.0" y2="274.0" class="shaft-cross"/>
  <line x1="654.0" y1="246.0" x2="626.0" y2="274.0" class="shaft-cross"/>
  <text x="640.0" y="263.0" font-family="monospace" font-size="8" fill="#7f8c8d" text-anchor="middle">MEP</text>
  <rect x="523.8" y="26.0" width="28.0" height="28.0" class="shaft"/>
  <line x1="523.8" y1="26.0" x2="551.8" y2="54.0" class="shaft-cross"/>
  <line x1="551.8" y1="26.0" x2="523.8" y2="54.0" class="shaft-cross"/>
  <text x="537.8" y="43.0" font-family="monospace" font-size="8" fill="#7f8c8d" text-anchor="middle">MEP</text>
  <rect x="33.0" y="473.0" width="14.0" height="14.0" class="column"/>
  <rect x="33.0" y="313.0" width="14.0" height="14.0" class="column"/>
  <rect x="33.0" y="153.0" width="14.0" height="14.0" class="column"/>
  <rect x="33.0" y="33.0" width="14.0" height="14.0" class="column"/>
  <rect x="193.0" y="473.0" width="14.0" height="14.0" class="column"/>
  <rect x="193.0" y="33.0" width="14.0" height="14.0" class="column"/>
  <rect x="353.0" y="473.0" width="14.0" height="14.0" class="column"/>
  <rect x="353.0" y="33.0" width="14.0" height="14.0" class="column"/>
  <rect x="513.0" y="473.0" width="14.0" height="14.0" class="column"/>
  <rect x="513.0" y="33.0" width="14.0" height="14.0" class="column"/>
  <rect x="633.0" y="473.0" width="14.0" height="14.0" class="column"/>
  <rect x="633.0" y="313.0" width="14.0" height="14.0" class="column"/>
  <rect x="633.0" y="153.0" width="14.0" height="14.0" class="column"/>
  <rect x="633.0" y="33.0" width="14.0" height="14.0" class="column"/>
  <!-- Ventilation Duct Layout -->
  <line x1="193.0" y1="274.0" x2="471.32" y2="274.0" class="vent-duct"/>
  <line x1="471.32" y1="150.0" x2="588.88" y2="150.0" class="vent-duct"/>
  <line x1="109.92" y1="327.0" x2="122.28" y2="327.0" class="vent-duct"/>
  <line x1="122.28" y1="392.0" x2="179.84" y2="392.0" class="vent-duct"/>
  <line x1="179.84" y1="313.0" x2="193.0" y2="313.0" class="vent-duct"/>
  <line x1="179.84" y1="392.0" x2="179.84" y2="313.0" class="vent-duct"/>
  <line x1="471.32" y1="274.0" x2="471.32" y2="150.0" class="vent-duct"/>
  <line x1="193.0" y1="313.0" x2="193.0" y2="274.0" class="vent-duct"/>
  <line x1="109.92" y1="327.0" x2="109.92" y2="150.0" class="vent-duct"/>
  <line x1="122.28" y1="392.0" x2="122.28" y2="327.0" class="vent-duct"/>
  <!-- Wet Room Terminals -->
  <circle cx="588.88" cy="150.0" r="6" class="vent-terminal"/>
  <circle cx="122.28" cy="392.0" r="6" class="vent-terminal"/>
  <circle cx="471.32" cy="150.0" r="6" class="vent-terminal"/>
  <circle cx="109.92" cy="150.0" r="6" class="vent-terminal"/>
  <line x1="40" y1="480.0" x2="240" y2="480.0" class="scale-bar"/>
  <text x="140.0" y="470.0" font-family="monospace" font-size="12" fill="#2c3e50" text-anchor="middle">5 Meters</text>
</svg>